<svg width="144" height="79" fill="none" xmlns="http://www.w3.org/2000/svg"><path fill="#027F6D" d="M0 0h144v79H0z"/><path d="M16.963 52.825h1.333V60h-1.332v-7.175zm6.256 1.64c.69 0 1.244.202 1.66.605.418.403.626 1 .626 1.794V60h-1.281v-2.972c0-.479-.113-.838-.338-1.077-.226-.246-.547-.369-.964-.369-.471 0-.844.144-1.117.43-.273.28-.41.688-.41 1.22V60h-1.281v-5.474h1.22v.708c.211-.253.478-.444.799-.574.321-.13.683-.195 1.086-.195zm9.322-2.07V60h-1.23v-.707c-.212.26-.475.454-.789.584a2.61 2.61 0 01-1.025.195 2.913 2.913 0 01-1.425-.349 2.523 2.523 0 01-.984-.984c-.239-.43-.358-.922-.358-1.476 0-.553.12-1.042.358-1.465.24-.424.567-.752.984-.985a2.914 2.914 0 011.425-.348c.362 0 .694.061.994.184a2 2 0 01.77.554v-2.809h1.28zm-2.89 6.58c.307 0 .584-.068.83-.205a1.56 1.56 0 00.584-.605c.144-.26.216-.56.216-.902 0-.341-.072-.642-.216-.902a1.484 1.484 0 00-.584-.594 1.617 1.617 0 00-.83-.216 1.61 1.61 0 00-.83.216 1.487 1.487 0 00-.585.594 1.84 1.84 0 00-.215.902c0 .342.072.643.215.902.144.26.339.462.585.605.246.137.522.205.83.205zm9.712-1.681c0 .089-.007.215-.02.38h-4.295c.075.402.27.724.584.963.321.232.718.348 1.189.348.601 0 1.097-.198 1.486-.594l.687.789a2.314 2.314 0 01-.933.666c-.376.15-.8.226-1.27.226-.602 0-1.132-.12-1.59-.359a2.63 2.63 0 01-1.066-.994 2.881 2.881 0 01-.368-1.456c0-.533.119-1.011.358-1.435.246-.43.584-.765 1.015-1.004.43-.24.916-.359 1.456-.359.533 0 1.007.12 1.424.359.424.232.752.564.984.994.24.424.359.916.359 1.476zm-2.767-1.804c-.41 0-.759.123-1.046.369-.28.24-.451.56-.512.963h3.105a1.51 1.51 0 00-.502-.963c-.28-.246-.629-.369-1.045-.369zm7.032-1.025c.533 0 1.008.116 1.424.348.424.233.755.56.995.984.239.424.358.913.358 1.466 0 .554-.12 1.046-.358 1.476-.24.424-.57.752-.995.984a2.875 2.875 0 01-1.424.349c-.738 0-1.323-.246-1.753-.738v2.654h-1.281v-7.462h1.22v.718c.211-.26.47-.454.778-.584.315-.13.66-.195 1.036-.195zm-.144 4.51c.472 0 .858-.157 1.158-.471.308-.315.462-.728.462-1.24 0-.513-.154-.927-.462-1.241-.3-.314-.686-.472-1.158-.472-.307 0-.584.072-.83.216-.246.136-.44.335-.584.594a1.83 1.83 0 00-.216.902c0 .342.072.643.216.902.143.26.338.462.584.605.246.137.523.205.83.205zm9.282-1.681c0 .089-.007.215-.02.38H48.45c.075.402.27.724.584.963.321.232.718.348 1.189.348.601 0 1.097-.198 1.486-.594l.687.789a2.314 2.314 0 01-.933.666c-.376.15-.8.226-1.27.226-.602 0-1.132-.12-1.59-.359a2.63 2.63 0 01-1.066-.994 2.881 2.881 0 01-.368-1.456c0-.533.12-1.011.358-1.435.246-.43.584-.765 1.015-1.004.43-.24.916-.359 1.456-.359.532 0 1.007.12 1.424.359.424.232.752.564.984.994.24.424.359.916.359 1.476zm-2.767-1.804c-.41 0-.759.123-1.046.369-.28.24-.451.56-.513.963h3.106a1.51 1.51 0 00-.502-.963c-.28-.246-.629-.369-1.045-.369zm7.103-1.025c.69 0 1.244.202 1.661.605.417.403.625 1 .625 1.794V60h-1.281v-2.972c0-.479-.113-.838-.338-1.077-.226-.246-.547-.369-.964-.369-.471 0-.844.144-1.117.43-.273.28-.41.688-.41 1.22V60h-1.281v-5.474h1.22v.708c.211-.253.478-.444.799-.574.321-.13.683-.195 1.087-.195zm9.322-2.07V60h-1.23v-.707c-.211.26-.475.454-.789.584a2.61 2.61 0 01-1.025.195 2.913 2.913 0 01-1.425-.349 2.523 2.523 0 01-.984-.984c-.239-.43-.358-.922-.358-1.476 0-.553.12-1.042.358-1.465.24-.424.568-.752.984-.985a2.914 2.914 0 011.425-.348c.362 0 .694.061.994.184a2 2 0 01.77.554v-2.809h1.28zm-2.89 6.58c.307 0 .584-.068.83-.205a1.56 1.56 0 00.584-.605c.144-.26.216-.56.216-.902 0-.341-.072-.642-.216-.902a1.484 1.484 0 00-.584-.594 1.617 1.617 0 00-.83-.216 1.61 1.61 0 00-.83.216 1.487 1.487 0 00-.585.594 1.84 1.84 0 00-.215.902c0 .342.072.643.215.902.144.26.339.462.585.605.246.137.522.205.83.205zm9.712-1.681c0 .089-.007.215-.02.38H68.93c.075.402.27.724.584.963.321.232.718.348 1.189.348.601 0 1.097-.198 1.486-.594l.687.789a2.314 2.314 0 01-.933.666c-.376.15-.8.226-1.27.226-.602 0-1.132-.12-1.59-.359a2.63 2.63 0 01-1.066-.994 2.881 2.881 0 01-.368-1.456c0-.533.12-1.011.358-1.435.246-.43.585-.765 1.015-1.004.43-.24.916-.359 1.456-.359.532 0 1.007.12 1.424.359.424.232.752.564.984.994.24.424.359.916.359 1.476zm-2.767-1.804c-.41 0-.759.123-1.046.369-.28.24-.451.56-.513.963h3.106a1.51 1.51 0 00-.502-.963c-.28-.246-.629-.369-1.046-.369zm7.103-1.025c.69 0 1.244.202 1.661.605.417.403.625 1 .625 1.794V60h-1.281v-2.972c0-.479-.113-.838-.338-1.077-.226-.246-.547-.369-.964-.369-.471 0-.844.144-1.117.43-.273.28-.41.688-.41 1.22V60h-1.281v-5.474h1.22v.708c.211-.253.478-.444.799-.574.321-.13.683-.195 1.087-.195zm7.202 5.238c-.15.123-.335.215-.554.276a2.415 2.415 0 01-.676.093c-.602 0-1.066-.157-1.394-.472-.328-.314-.492-.772-.492-1.373v-2.634h-.902v-1.026h.902v-1.25h1.281v1.25h1.466v1.026h-1.466v2.603c0 .267.065.471.195.615.13.137.318.205.564.205.287 0 .526-.075.717-.225l.359.912zm6.962-6.878c.621 0 1.161.102 1.62.307.464.206.82.5 1.065.882.246.383.37.837.37 1.363 0 .52-.124.974-.37 1.363-.246.383-.601.677-1.066.882-.458.205-.998.307-1.62.307h-1.619V60h-1.332v-7.175h2.952zm-.062 3.977c.58 0 1.022-.123 1.322-.369.301-.246.451-.598.451-1.056 0-.458-.15-.81-.45-1.056-.301-.245-.742-.368-1.323-.368h-1.558v2.849h1.558zm6.365-2.337c.806 0 1.421.195 1.845.584.43.383.645.964.645 1.743V60h-1.21v-.666a1.511 1.511 0 01-.676.553c-.287.123-.635.185-1.045.185-.41 0-.769-.069-1.076-.205a1.75 1.75 0 01-.718-.584 1.53 1.53 0 01-.246-.851c0-.492.181-.885.543-1.179.37-.3.947-.451 1.733-.451h1.414v-.082c0-.383-.116-.676-.348-.881-.226-.206-.564-.308-1.015-.308-.308 0-.612.048-.912.144a2.237 2.237 0 00-.749.4l-.502-.934a3.11 3.11 0 011.035-.502 4.61 4.61 0 011.282-.174zm-.175 4.674c.322 0 .605-.072.851-.215.253-.15.43-.362.533-.636v-.635h-1.322c-.738 0-1.107.242-1.107.727 0 .233.092.417.277.554.184.137.44.205.768.205zm5.53-3.813c.369-.574 1.018-.861 1.947-.861v1.22a1.62 1.62 0 00-.297-.031c-.499 0-.889.147-1.169.44-.28.288-.42.705-.42 1.251V60h-1.281v-5.474h1.22v.8zm6.524 4.377a1.49 1.49 0 01-.553.276 2.416 2.416 0 01-.677.093c-.601 0-1.066-.157-1.394-.472-.328-.314-.492-.772-.492-1.373v-2.634h-.902v-1.026h.902v-1.25h1.282v1.25h1.465v1.026h-1.465v2.603c0 .267.065.471.194.615.13.137.318.205.564.205.287 0 .526-.075.718-.225l.358.912zm4.16-5.238c.69 0 1.244.202 1.661.605.416.403.625 1 .625 1.794V60h-1.281v-2.972c0-.479-.113-.838-.339-1.077-.225-.246-.546-.369-.963-.369-.472 0-.844.144-1.117.43-.274.28-.41.688-.41 1.22V60h-1.282v-5.474h1.22v.708a2 2 0 01.8-.574c.321-.13.683-.195 1.086-.195zm9.107 2.829c0 .089-.007.215-.021.38h-4.295c.076.402.27.724.585.963.321.232.717.348 1.189.348.601 0 1.096-.198 1.486-.594l.687.789a2.313 2.313 0 01-.933.666c-.376.15-.8.226-1.271.226-.601 0-1.131-.12-1.589-.359a2.63 2.63 0 01-1.066-.994 2.881 2.881 0 01-.369-1.456c0-.533.12-1.011.359-1.435.246-.43.584-.765 1.015-1.004.43-.24.915-.359 1.455-.359.533 0 1.008.12 1.425.359.424.232.752.564.984.994.239.424.359.916.359 1.476zm-2.768-1.804c-.41 0-.758.123-1.045.369-.28.24-.451.56-.513.963h3.106a1.513 1.513 0 00-.502-.963c-.28-.246-.629-.369-1.046-.369zm5.218-.164c.369-.574 1.018-.861 1.948-.861v1.22a1.686 1.686 0 00-.298-.031c-.498 0-.888.147-1.168.44-.28.288-.42.705-.42 1.251V60h-1.282v-5.474h1.22v.8z" fill="#fff"/><g clip-path="url(#clip0)" fill="#fff"><path d="M19.733 27.895c.445 0 .89.056 1.327.111a.28.28 0 00.294-.174 10.98 10.98 0 014.62-5.43 11.06 11.06 0 0113.421 1.652 10.949 10.949 0 013.151 6.387 17.902 17.902 0 00-8.634 3.464 17.988 17.988 0 00-7.753-6.405l.072-.087a6.96 6.96 0 015.393-2.538 6.901 6.901 0 013.972 1.25 6.99 6.99 0 012.383 2.885.269.269 0 00.342.15c.413-.134.794-.26 1.247-.363a.279.279 0 00.19-.158.26.26 0 000-.23 8.81 8.81 0 00-3.209-3.885 8.87 8.87 0 00-9.684-.128 8.813 8.813 0 00-3.311 3.8.268.268 0 00.071.315c.03.026.066.045.104.056a16.243 16.243 0 019.532 7.852.301.301 0 00.198.142h.048c.07 0 .138-.025.19-.07a16.243 16.243 0 0110.525-4.334.286.286 0 00.27-.276 12.782 12.782 0 00-2.995-8.283 12.89 12.89 0 00-7.657-4.406 12.927 12.927 0 00-8.705 1.55 12.831 12.831 0 00-5.648 6.774.283.283 0 00.125.332.286.286 0 00.121.04v.007z"/><path d="M47.05 34.703a.268.268 0 00-.23-.229 15.215 15.215 0 00-2.065-.15c-2.408-.01-4.776.6-6.877 1.77a13.928 13.928 0 00-5.11 4.911l-.111.174v-.198a13.923 13.923 0 00-4.89-7.86 14.036 14.036 0 00-8.756-3.083c-.877.003-1.752.085-2.614.245a.27.27 0 00-.222.23 13.713 13.713 0 002.653 10.532 14.064 14.064 0 004.19 3.656 14.125 14.125 0 005.286 1.752.278.278 0 00.302-.214 9.808 9.808 0 00-1.366-7.784 9.876 9.876 0 00-2.886-2.836 9.925 9.925 0 00-3.787-1.446.288.288 0 00-.246.08.277.277 0 00-.071.245c.094.488.224.97.389 1.439a.292.292 0 00.198.174 8.081 8.081 0 014.542 2.955 8.016 8.016 0 011.638 5.15v.102a12.108 12.108 0 01-6.812-4.56 12.011 12.011 0 01-2.322-7.838h1.064a12.11 12.11 0 015.098 1.092 12.053 12.053 0 014.157 3.133 11.983 11.983 0 012.44 4.586 11.95 11.95 0 01.268 5.184 13.995 13.995 0 000 4.673.269.269 0 00.23.23c.455.068.914.113 1.374.134a.272.272 0 00.207-.095.269.269 0 00.063-.23 12.077 12.077 0 012.589-10.068 12.177 12.177 0 014.24-3.25 12.231 12.231 0 015.229-1.127h.508a12.073 12.073 0 01-2.172 7.745 12.167 12.167 0 01-6.565 4.685v-.103a8.126 8.126 0 011.547-4.937 8.188 8.188 0 014.22-3.018.27.27 0 00.174-.174c.188-.474.336-.964.445-1.462a.292.292 0 00-.08-.253.27.27 0 00-.253-.072 10.176 10.176 0 00-6.355 4.381 9.834 9.834 0 00-1.319 7.622.276.276 0 00.318.206 14.228 14.228 0 009.222-5.606 13.847 13.847 0 002.518-10.492zm15.752-1.32V22.85a.291.291 0 00-.294-.293h-1.446a.303.303 0 00-.294.293v6.452l-6.474-6.84a.198.198 0 00-.142-.063h-.31a.295.295 0 00-.274.186.29.29 0 00-.02.115v10.484a.29.29 0 00.18.278.295.295 0 00.114.023h1.43a.302.302 0 00.293-.3v-6.714l6.498 7.116a.2.2 0 00.143.064h.294a.294.294 0 00.302-.27zm18.801 13.703v-9.41a.268.268 0 00-.27-.26H80.04a.263.263 0 00-.263.26v5.78l-5.814-6.12a.191.191 0 00-.127-.055h-.278a.27.27 0 00-.262.269v9.393a.269.269 0 00.262.27h1.279a.27.27 0 00.27-.27v-6.017l5.822 6.365a.166.166 0 00.127.063h.246a.271.271 0 00.302-.268zm36.825 0v-9.41a.26.26 0 00-.262-.26h-1.294a.273.273 0 00-.189.075.274.274 0 00-.082.185v5.78l-5.806-6.12a.19.19 0 00-.127-.055h-.278a.27.27 0 00-.27.269v9.393a.269.269 0 00.27.269h1.279a.271.271 0 00.27-.269v-6.017l5.83 6.365a.166.166 0 00.127.063h.262a.269.269 0 00.27-.268zM84.431 24.132V22.85a.3.3 0 00-.294-.293h-7.395a.303.303 0 00-.302.293v1.28a.3.3 0 00.302.301h2.67v8.753a.307.307 0 00.293.3h1.462a.31.31 0 00.301-.3v-8.753h2.67a.302.302 0 00.293-.3zM96.02 29.35v-6.5a.308.308 0 00-.301-.292h-1.486a.303.303 0 00-.302.293v6.404c0 .602-.24 1.18-.667 1.605a2.285 2.285 0 01-3.224 0 2.264 2.264 0 01-.668-1.605v-6.404a.3.3 0 00-.302-.293h-1.485a.31.31 0 00-.302.293v6.5c0 1.153.46 2.259 1.28 3.074a4.379 4.379 0 006.178 0 4.338 4.338 0 001.28-3.075zm22.114-6.792h-6.354a.303.303 0 00-.294.293v10.334a.3.3 0 00.294.3h6.354a.295.295 0 00.274-.185.28.28 0 00.02-.115v-1.28a.287.287 0 00-.086-.208.285.285 0 00-.208-.085h-4.638v-2.736h3.868a.296.296 0 00.302-.293v-1.296a.309.309 0 00-.302-.301h-3.868v-2.554h4.638a.295.295 0 00.274-.186.28.28 0 00.02-.114V22.85a.287.287 0 00-.086-.207.287.287 0 00-.208-.086zm9.564 9.409h-5.655c-.175 0-.302.103-.302.23v1.067c0 .119.127.222.302.222h5.655c.175 0 .302-.103.302-.222v-1.067c0-.127-.127-.23-.302-.23zM56.9 41.416c-1.136-.458-1.66-.909-1.66-1.581.034-.294.183-.562.416-.746.232-.183.528-.268.823-.235.704.11 1.372.381 1.954.791a.375.375 0 00.492-.166l.533-.79a.339.339 0 00-.08-.46 4.972 4.972 0 00-2.82-.94c-2.232 0-3.177 1.439-3.177 2.688 0 1.653 1.327 2.49 2.645 3.02 1.184.483 1.787.965 1.787 1.685a1.166 1.166 0 01-.819 1.026 1.18 1.18 0 01-.46.05 4.643 4.643 0 01-2.128-.87.325.325 0 00-.477.102l-.508.862c-.12.23-.056.3.071.427a4.588 4.588 0 003.098 1.091c1.994-.016 3.265-1.336 3.265-2.79 0-1.804-1.589-2.618-2.955-3.164zm12.916-4.001H68.48a.27.27 0 00-.27.261v5.74a2.03 2.03 0 01-.552 1.525 2.05 2.05 0 01-1.493.643 2.058 2.058 0 01-1.494-.643 2.04 2.04 0 01-.552-1.524v-5.74a.262.262 0 00-.294-.262h-1.31a.278.278 0 00-.262.261v5.828c0 1.034.412 2.025 1.147 2.756a3.925 3.925 0 005.538 0 3.889 3.889 0 001.147-2.756v-5.828a.277.277 0 00-.27-.26zm18.054 4.001c-1.143-.458-1.66-.909-1.66-1.581a1.116 1.116 0 011.24-.981 4.64 4.64 0 011.954.791.375.375 0 00.492-.166l.532-.79a.338.338 0 00-.087-.46 4.908 4.908 0 00-2.812-.94c-2.232 0-3.177 1.439-3.177 2.688 0 1.653 1.318 2.49 2.645 3.02 1.183.483 1.787.965 1.787 1.685a1.166 1.166 0 01-.819 1.026 1.18 1.18 0 01-.46.05 4.643 4.643 0 01-2.129-.87.325.325 0 00-.476.102l-.509.862c-.127.23-.055.3.072.427a4.588 4.588 0 003.098 1.091c1.978 0 3.233-1.336 3.233-2.775.04-1.819-1.55-2.633-2.923-3.179zm13.544-4.001h-1.295a.271.271 0 00-.27.261v4.468c-1.12-.838-2.597-1.084-4.4-1.084h-.183v-3.384a.26.26 0 00-.262-.26h-1.311a.271.271 0 00-.27.26v9.267a.269.269 0 00.27.27h1.31a.27.27 0 00.263-.27v-4.238c2.025 0 3.463.285 4.313 1.368a1.3 1.3 0 01.262.79v2.056a.267.267 0 00.167.249c.033.013.068.02.103.02h1.295a.268.268 0 00.249-.166.26.26 0 00.021-.102v-9.244a.27.27 0 00-.262-.261zm5.147 0h-1.303a.27.27 0 00-.27.27v9.258a.27.27 0 00.27.27h1.303a.27.27 0 00.27-.27v-9.259a.27.27 0 00-.27-.269zm21.169 0h-5.719a.27.27 0 00-.27.261v9.267a.269.269 0 00.27.269h5.719a.27.27 0 00.27-.269v-1.146a.27.27 0 00-.27-.269h-4.162v-2.443h3.479a.268.268 0 00.262-.269v-1.163a.27.27 0 00-.262-.26h-3.479v-2.301h4.162a.27.27 0 00.27-.261v-1.155a.27.27 0 00-.27-.261zM73.668 33.24a.42.42 0 00.413.246h1.366a.28.28 0 00.298-.269.276.276 0 00-.035-.143l-4.83-10.5a.269.269 0 00-.27-.174h-.151a.287.287 0 00-.27.174l-4.877 10.5a.276.276 0 00.122.386.29.29 0 00.148.026h1.358a.478.478 0 00.46-.317l.795-1.684.215-.474c.263-.032.529-.047.794-.048 2.192 0 3.678.894 4.472 2.285l-.008-.008zm-4.56-3.882l1.367-3.036h.048l1.588 3.431.048.095a8.145 8.145 0 00-2.876-.49h-.174zm30.463-6.508a.3.3 0 01.302-.292h4.464c.9-.006 1.766.343 2.408.972a3.379 3.379 0 011.016 2.38 3.457 3.457 0 01-2.328 3.163l2.153 3.954a.29.29 0 01.006.309.298.298 0 01-.276.142h-1.629a.272.272 0 01-.254-.143l-2.081-4.135h-1.74v3.954a.308.308 0 01-.301.3h-1.438a.303.303 0 01-.302-.3V22.85zm4.607 4.69a1.59 1.59 0 001.123-.464c.298-.296.466-.698.466-1.118a1.58 1.58 0 00-.49-1.072 1.593 1.593 0 00-1.099-.438h-2.55v3.107l2.55-.015zm17.634 2.024l.445-.791a.381.381 0 01.242-.157.373.373 0 01.282.062c.6.32 1.266.498 1.946.522.628 0 1.033-.245 1.033-.68 0-.435-.461-.79-1.589-1.305-1.294-.545-2.383-1.304-2.383-2.625 0-1.004.866-2.206 2.876-2.206a4.88 4.88 0 012.478.625.442.442 0 01.167.577l-.381.68a.453.453 0 01-.548.166 4.971 4.971 0 00-1.716-.419c-.715 0-.945.3-.945.601 0 .514.524.735 1.342 1.075 1.533.64 2.788 1.265 2.788 2.768 0 1.241-1.231 2.372-3.098 2.372a4.557 4.557 0 01-2.772-.79.328.328 0 01-.192-.2.335.335 0 01.025-.275z"/></g><defs><clipPath id="clip0"><path fill="#fff" transform="translate(16 19)" d="M0 0h112v34H0z"/></clipPath></defs></svg>